<svg width="48" height="48" viewBox="0 0 48 48" fill="none" xmlns="http://www.w3.org/2000/svg">
<path d="M43.5 13.5V34.5C43.5 35.6935 43.0259 36.8381 42.182 37.682C41.3381 38.5259 40.1935 39 39 39H9C7.80653 39 6.66193 38.5259 5.81802 37.682C4.97411 36.8381 4.5 35.6935 4.5 34.5V13.5M43.5 13.5C43.5 12.3065 43.0259 11.1619 42.182 10.318C41.3381 9.47411 40.1935 9 39 9H9C7.80653 9 6.66193 9.47411 5.81802 10.318C4.97411 11.1619 4.5 12.3065 4.5 13.5M43.5 13.5V13.986C43.5001 14.7543 43.3035 15.5098 42.9289 16.1806C42.5543 16.8514 42.0142 17.4151 41.36 17.818L26.36 27.048C25.6504 27.4851 24.8334 27.7165 24 27.7165C23.1666 27.7165 22.3496 27.4851 21.64 27.048L6.64 17.82C5.98584 17.4171 5.44574 16.8534 5.07114 16.1826C4.69654 15.5118 4.49991 14.7563 4.5 13.988V13.5" stroke="#3661A4" stroke-width="2.5" stroke-linecap="round" stroke-linejoin="round"/>
</svg>
